<svg width="40" height="40" viewBox="0 0 40 40" fill="none" xmlns="http://www.w3.org/2000/svg">
<rect width="40" height="40" rx="12" fill="#3B74FF"/>
<path d="M24.7 26.98H15.3C14.88 26.98 14.41 26.65 14.27 26.25L10.13 14.67C9.53999 13.01 10.23 12.5 11.65 13.52L15.55 16.31C16.2 16.76 16.94 16.53 17.22 15.8L18.98 11.11C19.54 9.61 20.47 9.61 21.03 11.11L22.79 15.8C23.07 16.53 23.81 16.76 24.45 16.31L28.11 13.7C29.67 12.58 30.42 13.15 29.78 14.96L25.74 26.27C25.59 26.65 25.12 26.98 24.7 26.98Z" stroke="white" stroke-width="1.5" stroke-linecap="round" stroke-linejoin="round"/>
<path d="M14.5 30H25.5" stroke="white" stroke-width="1.5" stroke-linecap="round" stroke-linejoin="round"/>
<path d="M17.5 22H22.5" stroke="white" stroke-width="1.5" stroke-linecap="round" stroke-linejoin="round"/>
</svg>
